<?xml version="1.0" encoding="utf-8"?>
<!-- Generator: Adobe Illustrator 22.0.1, SVG Export Plug-In . SVG Version: 6.00 Build 0)  -->
<svg version="1.1" id="Camada_1" xmlns="http://www.w3.org/2000/svg" xmlns:xlink="http://www.w3.org/1999/xlink" x="0px" y="0px"
	 viewBox="0 0 150 150" style="enable-background:new 0 0 150 150;" xml:space="preserve">
<style type="text/css">
	.st0{fill:#7C3EBE;}
	.st1{fill:#9B4DEE;}
	.st2{fill:#9F8CBD;}
	.st3{fill:#D7B8F8;}
	.st4{fill:#CDCDCD;}
	.st5{fill:#EBDBFC;}
	.st6{fill:#AF71F1;}
	.st7{fill:#C394F5;}
	.st8{fill:#F4C734;}
	.st9{fill:#874E35;}
	.st10{fill:#AEBFCE;}
	.st11{fill:#FC757E;}
	.st12{fill:#F5585C;}
	.st13{fill:#E34450;}
	.st14{fill:#F9D6BF;}
	.st15{fill:none;stroke:#EBDBFC;stroke-width:4.4905;stroke-linecap:round;stroke-miterlimit:10;}
	.st16{fill:#99AF17;}
	.st17{fill:#FF4B34;}
	.st18{fill:#D79100;}
	.st19{fill:#BDBDBF;}
</style>
<g>
	<g>
		<path class="st7" d="M22.2,68.8c0,8.4,1.7,16.7,5,24.4c3.3,7.7,5,16,5,24.4v10.7h36.7v-10.7c0-8.4,1.7-16.7,5-24.4
			c3.3-7.7,5-16,5-24.4v-0.6H22.2V68.8z M22.2,68.8"/>
		<rect x="22.2" y="54.8" class="st3" width="56.7" height="13.3"/>
		<path class="st5" d="M32.2,41.4h36.7c5.5,0,10,4.5,10,10v3.3H22.2v-3.3C22.2,45.9,26.7,41.4,32.2,41.4L32.2,41.4z M32.2,41.4"/>
		<path class="st5" d="M68.9,41.4h-8.3c5.5,0,10,4.5,10,10v3.3h8.3v-3.3C78.9,45.9,74.4,41.4,68.9,41.4L68.9,41.4z M68.9,41.4"/>
		<path class="st5" d="M55.6,54.8h10v21.7c0,2.8-2.2,5-5,5c-2.8,0-5-2.2-5-5V54.8z M55.6,54.8"/>
		<path class="st3" d="M32.2,134.8c0,1.8,1.5,3.3,3.3,3.3h30c1.8,0,3.3-1.5,3.3-3.3v-6.7H32.2V134.8z M32.2,134.8"/>
		<path class="st3" d="M60.6,128.2v6.7c0,1.8-1.5,3.3-3.3,3.3h8.3c1.8,0,3.3-1.5,3.3-3.3v-6.7H60.6z M60.6,128.2"/>
		<path class="st5" d="M42.2,79.8c0,1.8-1.5,3.3-3.3,3.3c-1.8,0-3.3-1.5-3.3-3.3c0-1.8,1.5-3.3,3.3-3.3C40.7,76.5,42.2,78,42.2,79.8
			L42.2,79.8z M42.2,79.8"/>
		<path class="st5" d="M48.9,94.8c0,0.9-0.7,1.7-1.7,1.7c-0.9,0-1.7-0.7-1.7-1.7c0-0.9,0.7-1.7,1.7-1.7
			C48.1,93.1,48.9,93.9,48.9,94.8L48.9,94.8z M48.9,94.8"/>
		<path class="st7" d="M70.6,68.8c0,8.4-1.7,16.7-5,24.4c-3.3,7.7-5,16-5,24.4v10.7h8.3v-10.7c0-8.4,1.7-16.7,5-24.4
			c3.3-7.7,5-16,5-24.4v-0.6h-8.3V68.8z M70.6,68.8"/>
		<rect x="70.6" y="54.8" class="st3" width="8.3" height="13.3"/>
	</g>
	<g>
		<path class="st3" d="M88.5,138.3h35c2.4,0,4.4-2,4.4-4.4v-6.6H84.1v6.6C84.1,136.3,86.1,138.3,88.5,138.3L88.5,138.3z M88.5,138.3
			"/>
		<path class="st3" d="M121.3,54.3l-0.1-0.3c-4.3-10.7-6.5-22.2-6.5-33.7H97.2c0,11.6-2.2,23-6.5,33.7l-0.1,0.3
			c-3.7,9.4-5.9,19.3-6.4,29.3h43.5C127.2,73.5,125.1,63.6,121.3,54.3L121.3,54.3z M121.3,54.3"/>
		<path class="st8" d="M127.8,83.6h-0.1c0.1,1.5,0.1,2.9,0.1,4.4V83.6z M127.8,83.6"/>
		<path class="st8" d="M84.1,83.6V88c0-1.5,0-2.9,0.1-4.4H84.1z M84.1,83.6"/>
		<path class="st1" d="M127.8,88c0-1.5,0-2.9-0.1-4.4H84.2c-0.1,1.5-0.1,2.9-0.1,4.4v39.3h43.7V88z M127.8,88"/>
		<path class="st5" d="M106,92.4c-7.2,0-13.1,5.9-13.1,13.1c0,7.2,5.9,13.1,13.1,13.1s13.1-5.9,13.1-13.1
			C119.1,98.2,113.2,92.4,106,92.4L106,92.4z M106,114.2c-4.8,0-8.7-3.9-8.7-8.7c0-4.8,3.9-8.7,8.7-8.7c4.8,0,8.7,3.9,8.7,8.7
			C114.7,110.3,110.8,114.2,106,114.2L106,114.2z M106,114.2"/>
		<path class="st3" d="M114.8,23.5c0-1.1-0.1-2.2-0.1-3.2H97.2c0,3.5-0.2,7-0.6,10.5L114.8,23.5z M114.8,23.5"/>
		<path class="st1" d="M106,85.8c-10.9,0-19.7,8.8-19.7,19.7s8.8,19.7,19.7,19.7s19.7-8.8,19.7-19.7C125.6,94.6,116.8,85.8,106,85.8
			L106,85.8z M106,118.6c-7.2,0-13.1-5.9-13.1-13.1c0-7.2,5.9-13.1,13.1-13.1s13.1,5.9,13.1,13.1C119.1,112.7,113.2,118.6,106,118.6
			L106,118.6z M106,118.6"/>
		<path class="st5" d="M97.2,11.5h17.5c1.2,0,2.2,1,2.2,2.2V18c0,1.2-1,2.2-2.2,2.2H97.2c-1.2,0-2.2-1-2.2-2.2v-4.4
			C95,12.5,96,11.5,97.2,11.5L97.2,11.5z M97.2,11.5"/>
		<path class="st6" d="M95,18c0,1.2,1,2.2,2.2,2.2h17.5c1.2,0,2.2-1,2.2-2.2H95z M95,18"/>
	</g>
</g>
</svg>
