<?xml version="1.0" encoding="utf-8"?>
<!-- Generator: Adobe Illustrator 22.0.1, SVG Export Plug-In . SVG Version: 6.00 Build 0)  -->
<svg version="1.1" id="Camada_1" xmlns="http://www.w3.org/2000/svg" xmlns:xlink="http://www.w3.org/1999/xlink" x="0px" y="0px"
	 viewBox="0 0 150 150" style="enable-background:new 0 0 150 150;" xml:space="preserve">
<style type="text/css">
	.st0{fill:#7C3EBE;}
	.st1{fill:#9B4DEE;}
	.st2{fill:#9F8CBD;}
	.st3{fill:#D7B8F8;}
	.st4{fill:#CDCDCD;}
	.st5{fill:#EBDBFC;}
	.st6{fill:#AF71F1;}
	.st7{fill:#C394F5;}
	.st8{fill:#F4C734;}
	.st9{fill:#874E35;}
	.st10{fill:#AEBFCE;}
	.st11{fill:#FC757E;}
	.st12{fill:#F5585C;}
	.st13{fill:#E34450;}
	.st14{fill:#F9D6BF;}
	.st15{fill:none;stroke:#EBDBFC;stroke-width:4.4905;stroke-linecap:round;stroke-miterlimit:10;}
	.st16{fill:#99AF17;}
	.st17{fill:#FF4B34;}
	.st18{fill:#D79100;}
	.st19{fill:#BDBDBF;}
</style>
<g>
	<g>
		<path class="st1" d="M25.5,84.3c2.5-4.3,8.8-4.3,11.3,0l12.9,21.9c2.5,4.3-0.6,9.7-5.6,9.7H18.3c-5,0-8.2-5.4-5.7-9.7L25.5,84.3z
			 M25.5,84.3"/>
		<path class="st7" d="M11.1,115.9h127.7c3.1,0,5.6,2.5,5.6,5.6v0c0,3.1-2.5,5.6-5.6,5.6H11.1c-3.1,0-5.6-2.5-5.6-5.6v0
			C5.5,118.4,8,115.9,11.1,115.9z"/>
	</g>
	<rect x="23" y="127.2" class="st1" width="9" height="11.3"/>
	<rect x="117.9" y="127.2" class="st1" width="9" height="11.3"/>
	<g>
		<path class="st1" d="M75,115.9c-9.9,0-18.1-8.1-18.1-18.1v-2.3c0-9.9,8.1-18.1,18.1-18.1c9.9,0,18.1,8.1,18.1,18.1v2.3
			C93.1,107.8,84.9,115.9,75,115.9L75,115.9z M75,115.9"/>
		<path class="st1" d="M131.5,115.9h-27.1c-2.5,0-4.5-2-4.5-4.5V82c0-2.5,2-4.5,4.5-4.5h27.1c2.5,0,4.5,2,4.5,4.5v29.4
			C136,113.9,134,115.9,131.5,115.9L131.5,115.9z M131.5,115.9"/>
	</g>
	<path class="st3" d="M28.9,92.1c1-1.7,3.5-1.7,4.5,0l5.1,13.2c1,1.7-0.3,3.9-2.3,3.9H26c-2,0-3.3-2.1-2.3-3.9L28.9,92.1z
		 M28.9,92.1"/>
	<path class="st3" d="M84,96.7c0,5.6-4,10.2-9,10.2c-5,0-9-4.5-9-10.2c0-5.6,4-10.2,9-10.2C80,86.6,84,91.1,84,96.7L84,96.7z
		 M84,96.7"/>
	<path class="st6" d="M79.5,96.7c0,1.9-2,3.4-4.5,3.4c-2.5,0-4.5-1.5-4.5-3.4s2-3.4,4.5-3.4C77.5,93.3,79.5,94.8,79.5,96.7
		L79.5,96.7z M79.5,96.7"/>
	<path class="st3" d="M127,109.1h-18.1c-1.2,0-2.2-1-2.2-2.3V86.6c0-1.2,1-2.3,2.2-2.3H127c1.2,0,2.3,1,2.3,2.3v20.3
		C129.2,108.1,128.2,109.1,127,109.1L127,109.1z M127,109.1"/>
	<path class="st0" d="M113.4,95.6c-0.6,0-1.2-0.2-1.6-0.7c-0.9-0.9-0.9-2.3,0-3.2l2.3-2.3c0.9-0.9,2.3-0.9,3.2,0
		c0.9,0.9,0.9,2.3,0,3.2l-2.3,2.3C114.6,95.4,114,95.6,113.4,95.6L113.4,95.6z M113.4,95.6"/>
	<path class="st0" d="M115.7,104.6c-0.6,0-1.2-0.2-1.6-0.7l-2.3-2.3c-0.9-0.9-0.9-2.3,0-3.2c0.9-0.9,2.3-0.9,3.2,0l2.3,2.3
		c0.9,0.9,0.9,2.3,0,3.2C116.8,104.4,116.2,104.6,115.7,104.6L115.7,104.6z M115.7,104.6"/>
	<path class="st0" d="M120.2,100.1c-0.6,0-1.1-0.2-1.6-0.7c-0.9-0.9-0.9-2.3,0-3.2l2.3-2.3c0.9-0.9,2.3-0.9,3.2,0
		c0.9,0.9,0.9,2.3,0,3.2l-2.3,2.3C121.3,99.9,120.8,100.1,120.2,100.1L120.2,100.1z M120.2,100.1"/>
	<path class="st7" d="M124.2,13.1L124.2,13.1c0.6,1.4,0.1,3-1.3,3.7L19.7,68.3c-1.7,0.8-3.7-0.2-4-2L15.1,63
		c-0.2-1.3,0.4-2.5,1.6-3.1l103.8-48.3C121.9,11.1,123.5,11.7,124.2,13.1z M123,10.5"/>
	<path class="st3" d="M131.6,37.6L131.6,37.6c0.2,1.5-0.8,2.9-2.3,3.1L16.5,57c-1.5,0.2-2.9-0.8-3.1-2.3v0c-0.2-1.5,0.8-2.9,2.3-3.1
		l112.7-16.3C129.9,35,131.3,36,131.6,37.6z M131.2,34.8"/>
</g>
</svg>
