<?xml version="1.0" encoding="utf-8"?>
<!-- Generator: Adobe Illustrator 22.0.1, SVG Export Plug-In . SVG Version: 6.00 Build 0)  -->
<svg version="1.1" id="Camada_1" xmlns="http://www.w3.org/2000/svg" xmlns:xlink="http://www.w3.org/1999/xlink" x="0px" y="0px"
	 viewBox="0 0 150 150" style="enable-background:new 0 0 150 150;" xml:space="preserve">
<style type="text/css">
	.st0{fill:#7C3EBE;}
	.st1{fill:#9B4DEE;}
	.st2{fill:#9F8CBD;}
	.st3{fill:#D7B8F8;}
	.st4{fill:#CDCDCD;}
	.st5{fill:#EBDBFC;}
	.st6{fill:#AF71F1;}
	.st7{fill:#C394F5;}
	.st8{fill:#F4C734;}
	.st9{fill:#874E35;}
	.st10{fill:#AEBFCE;}
	.st11{fill:#FC757E;}
	.st12{fill:#F5585C;}
	.st13{fill:#E34450;}
	.st14{fill:#F9D6BF;}
	.st15{fill:none;stroke:#EBDBFC;stroke-width:4.4905;stroke-linecap:round;stroke-miterlimit:10;}
	.st16{fill:#99AF17;}
	.st17{fill:#FF4B34;}
	.st18{fill:#D79100;}
	.st19{fill:#BDBDBF;}
</style>
<g>
	<path class="st7" d="M31.3,131.3l-17.1-4.5V13.2l17.1-2.1V131.3z M31.3,131.3"/>
	<path class="st3" d="M107.3,13.2l-76-2.1v120.1l76-3.1V13.2z M49.8,94.8"/>
	<path class="st1" d="M63.2,68.1h-9c-7.2,0-13.1-5.9-13.1-13.1v-9h9c7.2,0,13.1,5.9,13.1,13.1V68.1z M63.2,68.1"/>
	<path class="st1" d="M73,68.1h9c7.2,0,13.1-5.9,13.1-13.1v-9h-9C78.9,46,73,51.9,73,59.1V68.1z M73,68.1"/>
	<path class="st1" d="M68.1,57.1l6.3-6.3c5.1-5.1,5.1-13.4,0-18.5l-6.3-6.3l-6.3,6.3c-5.1,5.1-5.1,13.4,0,18.5L68.1,57.1z
		 M68.1,57.1"/>
	<path class="st1" d="M110.4,84.9l9.2-34.5c0-1.4-1.1-2.5-2.4-2.5h-4.9c-1.4,0-2.5,1.1-2.5,2.5l-9,33.8c-2.4-0.1-4.9-0.2-7.4-0.2
		c-24.1,0-43.6,4.7-43.6,10.5v0.3c0,24.1,19.5,43.6,43.6,43.6c24.1,0,43.6-19.5,43.6-43.6v-0.3C137,90.2,126,86.5,110.4,84.9
		L110.4,84.9z M110.4,84.9"/>
	<path class="st5" d="M110.4,84.9l9.2-34.5c0-1.4-1.1-2.5-2.4-2.5h-4.9c-1.4,0-2.5,1.1-2.5,2.5l-9,33.8c-2.4-0.1-4.9-0.2-7.4-0.2
		c-24.1,0-43.6,4.7-43.6,10.5c0,5.8,19.5,10.5,43.6,10.5c24.1,0,43.6-4.7,43.6-10.5C137,90.2,126,86.5,110.4,84.9L110.4,84.9z
		 M110.4,84.9"/>
	<path class="st1" d="M110.4,84.9l9.2-34.5c0-1.4-1.1-2.5-2.4-2.5h-4.9c-1.4,0-2.5,1.1-2.5,2.5l-9,33.8l-1.6,6.1l9.5,1.7L110.4,84.9
		z M110.4,84.9"/>
	<path class="st6" d="M82.8,97h-4.9c0-1.4-1.1-2.5-2.5-2.5c-1.4,0-2.5,1.1-2.5,2.5h-4.9c0-4.1,3.3-7.3,7.3-7.3
		C79.5,89.6,82.8,92.9,82.8,97L82.8,97z M82.8,97"/>
	<path class="st6" d="M102.4,99.4h-4.9c0-1.4-1.1-2.5-2.5-2.5c-1.3,0-2.4,1.1-2.4,2.5h-4.9c0-4.1,3.3-7.4,7.3-7.4
		C99.1,92,102.4,95.4,102.4,99.4L102.4,99.4z M102.4,99.4"/>
</g>
</svg>
