<?xml version="1.0" encoding="utf-8"?>
<!-- Generator: Adobe Illustrator 22.0.1, SVG Export Plug-In . SVG Version: 6.00 Build 0)  -->
<svg version="1.1" id="Camada_1" xmlns="http://www.w3.org/2000/svg" xmlns:xlink="http://www.w3.org/1999/xlink" x="0px" y="0px"
	 viewBox="0 0 150 150" style="enable-background:new 0 0 150 150;" xml:space="preserve">
<style type="text/css">
	.st0{fill:#7C3EBE;}
	.st1{fill:#9B4DEE;}
	.st2{fill:#9F8CBD;}
	.st3{fill:#D7B8F8;}
	.st4{fill:#CDCDCD;}
	.st5{fill:#EBDBFC;}
	.st6{fill:#AF71F1;}
	.st7{fill:#C394F5;}
	.st8{fill:#F4C734;}
	.st9{fill:#874E35;}
	.st10{fill:#AEBFCE;}
	.st11{fill:#FC757E;}
	.st12{fill:#F5585C;}
	.st13{fill:#E34450;}
	.st14{fill:#F9D6BF;}
	.st15{fill:none;stroke:#EBDBFC;stroke-width:4.4905;stroke-linecap:round;stroke-miterlimit:10;}
	.st16{fill:#99AF17;}
	.st17{fill:#FF4B34;}
	.st18{fill:#D79100;}
	.st19{fill:#BDBDBF;}
</style>
<g>
	<path class="st7" d="M147,48H7.4L0,50.1v71.3c0,3,2.5,5.5,5.5,5.5h100.3c0.9,0,1.7-0.6,1.9-1.5c1-3.6,4.2-6.3,8.2-6.3
		c3.9,0,7.1,2.6,8.1,6.1c0.3,1,1.2,1.7,2.2,1.7h18.3c3,0,5.5-2.5,5.5-5.5v-8c0-0.9-0.6-1.8-1.4-2.1c-4.5-1.6-7.7-5.8-7.7-10.9
		c0-5,3.2-9.3,7.7-10.8c0.9-0.3,1.5-1.2,1.5-2.2V50.1L147,48z M147,48"/>
	<path class="st1" d="M6,121.4V50.1l7.4-2.1h-6L0,50.1v71.3c0,3,2.5,5.5,5.5,5.5h6C8.5,126.9,6,124.5,6,121.4L6,121.4z M6,121.4"/>
	<g>
		<path class="st1" d="M130.1,125.3c-1-3.5-4.3-6.1-8.1-6.1c-1.1,0-2.1,0.2-3,0.6c2.5,0.9,4.4,3,5.1,5.6c0.3,1,1.2,1.7,2.2,1.7h6
			C131.3,126.9,130.3,126.2,130.1,125.3L130.1,125.3z M130.1,125.3"/>
		<path class="st3" d="M109.8,22.5c-2.1-1.5-4.8-1.9-7.3-1.2L0,50.1h150L109.8,22.5z M109.8,22.5"/>
	</g>
	<path class="st6" d="M121.5,40.4c4.5,0,8.4-1.1,10.5-2.7l-12.3-8.4c-6,0.4-10.5,2.7-10.5,5.5C109.2,37.9,114.7,40.4,121.5,40.4
		L121.5,40.4z M121.5,40.4"/>
	<path class="st6" d="M94.5,36.9c0-1.9-3.5-3.5-7.7-3.5c-4.3,0-7.7,1.6-7.7,3.5c0,1.9,3.5,3.5,7.7,3.5C91,40.4,94.5,38.9,94.5,36.9
		L94.5,36.9z M94.5,36.9"/>
	<path class="st6" d="M37.9,64.5c0,2.8-2.3,5-5,5c-2.8,0-5-2.3-5-5c0-2.8,2.3-5,5-5C35.7,59.5,37.9,61.8,37.9,64.5L37.9,64.5z
		 M37.9,64.5"/>
	<path class="st6" d="M85.1,107.5c0,2.8-2.3,5-5,5c-2.8,0-5-2.3-5-5c0-2.8,2.3-5,5-5C82.8,102.5,85.1,104.7,85.1,107.5L85.1,107.5z
		 M85.1,107.5"/>
	<path class="st6" d="M69.1,80.4c0,4.7-3.8,8.4-8.4,8.4s-8.4-3.8-8.4-8.4S56,72,60.7,72S69.1,75.8,69.1,80.4L69.1,80.4z M69.1,80.4"
		/>
	<path class="st6" d="M114,72.6c0,6.3-5.1,11.5-11.5,11.5c-6.3,0-11.5-5.1-11.5-11.5c0-6.3,5.1-11.5,11.5-11.5
		C108.9,61.1,114,66.3,114,72.6L114,72.6z M114,72.6"/>
	<path class="st6" d="M32.7,111.7c-6.5,0-11.8,5.3-11.8,11.8c0,1.2,0.2,2.3,0.5,3.4H44c0.3-1.1,0.5-2.2,0.5-3.4
		C44.5,117,39.2,111.7,32.7,111.7L32.7,111.7z M32.7,111.7"/>
	<path class="st1" d="M115.1,34.8c0-2,2.3-3.8,5.8-4.8l-1.1-0.8c-6,0.4-10.5,2.7-10.5,5.5c0,3.1,5.5,5.6,12.3,5.6c1,0,2-0.1,2.9-0.2
		C119.1,39.7,115.1,37.5,115.1,34.8L115.1,34.8z M115.1,34.8"/>
	<path class="st1" d="M85,36.9c0-1.5,2-2.7,4.8-3.2c-0.9-0.2-1.9-0.3-2.9-0.3c-4.3,0-7.7,1.6-7.7,3.5c0,1.9,3.5,3.5,7.7,3.5
		c1,0,2-0.1,2.9-0.3C86.9,39.6,85,38.4,85,36.9L85,36.9z M85,36.9"/>
	<path class="st1" d="M33.7,64.5c0-1.7,0.8-3.2,2.1-4.1c-0.8-0.6-1.8-1-2.9-1c-2.8,0-5,2.3-5,5c0,2.8,2.3,5,5,5c1.1,0,2.1-0.4,2.9-1
		C34.5,67.7,33.7,66.2,33.7,64.5L33.7,64.5z M33.7,64.5"/>
	<path class="st1" d="M80.9,107.5c0-1.7,0.8-3.2,2.1-4.1c-0.8-0.6-1.8-1-2.9-1c-2.8,0-5,2.3-5,5c0,2.8,2.3,5,5,5
		c1.1,0,2.1-0.4,2.9-1C81.7,110.7,80.9,109.2,80.9,107.5L80.9,107.5z M80.9,107.5"/>
	<path class="st1" d="M58.1,80.4c0-3.6,2.3-6.7,5.5-7.9c-0.9-0.3-1.9-0.5-2.9-0.5c-4.7,0-8.4,3.8-8.4,8.4s3.8,8.4,8.4,8.4
		c1,0,2-0.2,2.9-0.5C60.4,87.1,58.1,84,58.1,80.4L58.1,80.4z M58.1,80.4"/>
	<path class="st1" d="M96.9,72.6c0-5.3,3.6-9.8,8.5-11.1c-0.9-0.2-1.9-0.4-2.9-0.4c-6.3,0-11.5,5.1-11.5,11.5
		c0,6.3,5.1,11.5,11.5,11.5c1,0,2-0.1,2.9-0.4C100.6,82.4,96.9,77.9,96.9,72.6L96.9,72.6z M96.9,72.6"/>
	<path class="st1" d="M35.6,112c-0.9-0.2-1.9-0.4-2.9-0.4c-6.5,0-11.8,5.3-11.8,11.8c0,1.2,0.2,2.3,0.5,3.4h5.9
		c-0.3-1.1-0.5-2.2-0.5-3.4C26.7,118,30.5,113.3,35.6,112L35.6,112z M35.6,112"/>
</g>
</svg>
