<?xml version="1.0" encoding="utf-8"?>
<!-- Generator: Adobe Illustrator 22.0.1, SVG Export Plug-In . SVG Version: 6.00 Build 0)  -->
<svg version="1.1" id="Camada_1" xmlns="http://www.w3.org/2000/svg" xmlns:xlink="http://www.w3.org/1999/xlink" x="0px" y="0px"
	 viewBox="0 0 150 150" style="enable-background:new 0 0 150 150;" xml:space="preserve">
<style type="text/css">
	.st0{fill:#7C3EBE;}
	.st1{fill:#9B4DEE;}
	.st2{fill:#9F8CBD;}
	.st3{fill:#D7B8F8;}
	.st4{fill:#CDCDCD;}
	.st5{fill:#EBDBFC;}
	.st6{fill:#AF71F1;}
	.st7{fill:#C394F5;}
	.st8{fill:#F4C734;}
	.st9{fill:#874E35;}
	.st10{fill:#AEBFCE;}
	.st11{fill:#FC757E;}
	.st12{fill:#F5585C;}
	.st13{fill:#E34450;}
	.st14{fill:#F9D6BF;}
	.st15{fill:none;stroke:#EBDBFC;stroke-width:4.4905;stroke-linecap:round;stroke-miterlimit:10;}
	.st16{fill:#99AF17;}
	.st17{fill:#FF4B34;}
	.st18{fill:#D79100;}
	.st19{fill:#BDBDBF;}
</style>
<g>
	<g>
		<g>
			<path class="st5" d="M80,130.1l0.2,0c6.1-1.2,10.1-7.2,8.9-13.3l-6.4-32.4l-11.3,2.2L80,130.1z M80,130.1"/>
			<path class="st6" d="M84.7,19.7c-13-0.3-23.8,15.1-24.2,34.4c-0.4,19.2,9.8,35.1,22.8,35.3c13,0.3,23.8-15.1,24.2-34.4
				C107.9,35.8,97.7,20,84.7,19.7L84.7,19.7z M84.7,19.7"/>
			<g>
				<path class="st5" d="M80,130.1l-0.2,0.1c-6.1,1.2-12.1-2.8-13.3-8.9l-6.4-32.4l11.3-2.2L80,130.1z M80,130.1"/>
				<path class="st6" d="M69.2,52.4c-7.7-17.6-23.6-27.7-35.5-22.5C21.8,35,18.4,53.5,26.1,71.2c7.7,17.6,23.6,27.7,35.5,22.5
					C73.5,88.5,76.9,70,69.2,52.4L69.2,52.4z M69.2,52.4"/>
				<path class="st7" d="M91.9,46.6C87.5,24.5,71.7,8.9,56.7,11.9c-15,3-23.6,23.4-19.2,45.6c4.4,22.2,20.1,37.8,35.1,34.8
					C87.6,89.2,96.3,68.8,91.9,46.6L91.9,46.6z M91.9,46.6"/>
			</g>
			<path class="st5" d="M62.9,55.2c-5.7,0-10.2-3-10.5-3.2c-1-0.6-1.2-1.9-0.6-2.9c0.6-1,1.9-1.2,2.9-0.6c0.1,0,5.1,3.3,10.3,2.3
				c3-0.6,5.5-2.6,7.6-5.8c0.6-1,1.9-1.3,2.9-0.6c1,0.6,1.3,1.9,0.6,2.9c-2.7,4.2-6.1,6.8-10.3,7.6C64.8,55.1,63.8,55.2,62.9,55.2
				L62.9,55.2z M62.9,55.2"/>
			<path class="st5" d="M66.3,73.9c-8.6,0-15.7-6-16.1-6.3c-0.9-0.7-1-2.1-0.2-2.9c0.7-0.9,2.1-1,2.9-0.2c0.1,0.1,8.1,6.7,16.1,5
				c4.6-0.9,8.4-4.5,11.4-10.4c0.5-1,1.8-1.4,2.8-0.9c1,0.5,1.4,1.8,0.9,2.8c-3.6,7.2-8.4,11.5-14.3,12.7
				C68.6,73.8,67.4,73.9,66.3,73.9L66.3,73.9z M66.3,73.9"/>
			<path class="st5" d="M65.2,39.5c-0.3-1.4-1.8-2.2-3.3-1.9c-1.5,0.3-2.5,1.6-2.3,3l13.8,85.3c0,0.2,0.1,0.4,0.2,0.6
				c0.8,2.6,3.5,4.2,6.4,3.6c0,0,0,0,0.1,0c0,0,0,0,0.1,0c2.8-0.6,4.7-3.1,4.4-5.8c0-0.2,0-0.4-0.1-0.6L65.2,39.5z M65.2,39.5"/>
			<path class="st5" d="M77,125.8c-0.1-0.2-0.2-0.4-0.2-0.6L62.9,39.9c-0.1-0.8,0.2-1.6,0.7-2.2c-0.5-0.2-1.1-0.3-1.8-0.2
				c-1.5,0.3-2.5,1.6-2.3,3l13.8,85.3c0,0.2,0.1,0.4,0.2,0.6c0.8,2.6,3.5,4.2,6.4,3.6c0,0,0,0,0.1,0c0,0,0,0,0.1,0
				c0.6-0.1,1.1-0.3,1.6-0.6C79.5,129.3,77.6,127.8,77,125.8L77,125.8z M77,125.8"/>
		</g>
		<g>
			<path class="st7" d="M82.3,137.5c-3.3-1.8-4.9-5.7-3.7-9.2l17.6-51.8c3.4-10.1,15.4-14.5,25-9.2c9.6,5.3,12.2,17.8,5.4,26.1
				L92,135.7C89.7,138.6,85.6,139.3,82.3,137.5L82.3,137.5z M82.3,137.5"/>
			<path class="st1" d="M135,54.2L135,54.2c0.5-0.5,1-1.1,1.4-1.8c2.1-3.9,0.7-8.8-3.3-11c-4-2.2-8.9-0.8-11.1,3
				c-0.4,0.7-0.6,1.4-0.8,2.1h0l0,0c0,0.2-0.1,0.4-0.1,0.6l-2.5,14.4c-0.2,1.2,0.4,2.4,1.5,3c1.1,0.6,2.4,0.5,3.3-0.3l10.9-9.4
				C134.6,54.6,134.8,54.4,135,54.2L135,54.2z M135,54.2"/>
			<path class="st1" d="M96.4,117.8c-0.3,0-0.6-0.1-0.8-0.2l-8.8-3.8c-1.1-0.5-1.5-1.7-1.1-2.7c0.5-1.1,1.7-1.5,2.7-1.1l8.8,3.8
				c1.1,0.5,1.5,1.7,1.1,2.7C97.9,117.3,97.2,117.8,96.4,117.8L96.4,117.8z M96.4,117.8"/>
			<path class="st1" d="M109.5,111.1c-0.3,0-0.6-0.1-0.8-0.2l-11.5-5c-1.1-0.5-1.5-1.7-1.1-2.7c0.5-1.1,1.7-1.5,2.7-1.1l11.5,5
				c1.1,0.5,1.5,1.7,1.1,2.7C111.1,110.6,110.4,111.1,109.5,111.1L109.5,111.1z M109.5,111.1"/>
			<path class="st1" d="M105,96.1c-0.3,0-0.6-0.1-0.8-0.2l-8.8-3.8c-1.1-0.5-1.5-1.7-1.1-2.7c0.5-1.1,1.7-1.5,2.7-1.1l8.8,3.8
				c1.1,0.5,1.5,1.7,1.1,2.7C106.6,95.6,105.8,96.1,105,96.1L105,96.1z M105,96.1"/>
			<path class="st1" d="M122.4,91.4c-0.3,0-0.6-0.1-0.8-0.2l-15.9-6.9c-1.1-0.5-1.5-1.7-1.1-2.7c0.5-1.1,1.7-1.5,2.7-1.1l15.9,6.9
				c1.1,0.5,1.5,1.7,1.1,2.7C124,91,123.2,91.4,122.4,91.4L122.4,91.4z M122.4,91.4"/>
			<path class="st1" d="M122.4,64.7c0-0.1,0-0.1,0-0.2l2.5-14.4c0-0.2,0.1-0.4,0.1-0.6l0,0h0c0.2-0.7,0.4-1.5,0.8-2.1
				c2-3.6,6.4-5,10.1-3.5c-0.7-1-1.7-1.9-2.9-2.6c-4-2.2-8.9-0.8-11.1,3c-0.4,0.7-0.6,1.4-0.8,2.1l0,0l0,0c0,0.2-0.1,0.4-0.1,0.6
				l-2.5,14.4c-0.2,1.2,0.4,2.4,1.5,3C120.9,64.9,121.7,65,122.4,64.7L122.4,64.7z M122.4,64.7"/>
			<path class="st1" d="M121.3,62.2l-2.5-11.6c0-0.2-0.1-0.5-0.2-0.7l0,0h0c-0.2-0.6-0.4-1.2-0.8-1.7c-1.9-3.1-6-4.2-9.2-2.3
				c-3.1,1.8-4.1,5.9-2.2,9c0.3,0.6,0.8,1,1.2,1.5l0,0l0,0c0.1,0.1,0.3,0.2,0.4,0.3l9.3,7.8c0.8,0.6,1.9,0.7,2.7,0.2
				C121.1,64.1,121.5,63.1,121.3,62.2L121.3,62.2z M121.3,62.2"/>
			<g>
				<path class="st1" d="M112.9,54.4c-0.1-0.1-0.3-0.2-0.4-0.3l0,0l0,0c-0.5-0.4-0.9-0.9-1.2-1.5c-1.6-2.5-1.2-5.7,0.6-7.8
					c-1.1,0-2.2,0.3-3.1,0.9c-3.1,1.8-4.1,5.9-2.2,9c0.3,0.6,0.8,1,1.2,1.5l0,0l0,0c0.1,0.1,0.3,0.2,0.4,0.3l9.3,7.8
					c0.8,0.6,1.9,0.7,2.7,0.2c0.8-0.5,1.3-1.5,1.1-2.4l-0.2-0.9L112.9,54.4z M112.9,54.4"/>
				<path class="st1" d="M142.6,64.5c-0.1-3.6-3.2-6.6-6.9-6.5c-0.7,0-1.3,0.1-1.9,0.3v0l0,0c-0.2,0.1-0.5,0.2-0.7,0.3L122,62.6
					c-0.9,0.3-1.5,1.2-1.5,2.2c0,1,0.7,1.9,1.6,2.2l11.6,3.8c0.2,0.1,0.3,0.1,0.5,0.2l0,0v0c0.6,0.2,1.2,0.3,1.9,0.3
					C139.8,71.1,142.7,68.1,142.6,64.5L142.6,64.5z M142.6,64.5"/>
			</g>
			<path class="st1" d="M140.8,69c-0.7,0-1.3-0.1-1.9-0.3v0l0,0c-0.2,0-0.3-0.1-0.5-0.2l-11.6-3.8c-1-0.3-1.6-1.2-1.6-2.2
				c0-0.5,0.1-1,0.4-1.3l-3.6,1.3c-0.9,0.3-1.5,1.2-1.5,2.2c0,1,0.7,1.9,1.6,2.2l11.6,3.8c0.2,0.1,0.3,0.1,0.5,0.2l0,0v0
				c0.6,0.2,1.2,0.3,1.9,0.3c1.9,0,3.7-0.8,4.8-2.2C140.9,68.9,140.9,69,140.8,69L140.8,69z M140.8,69"/>
		</g>
		<g>
			<path class="st5" d="M43.6,87.6c-1,0-1.9-0.8-2-1.9l-0.9-24.1c-0.1-1.2,0.8-2.2,2-2.2h1.7c1.1,0,2,1,2,2.2l-0.9,24.1
				C45.5,86.7,44.6,87.6,43.6,87.6L43.6,87.6z M43.6,87.6"/>
			<path class="st0" d="M44.2,74.8c11.9,6.6,15.1-7.1,15.8-11.6c0.1-0.8-0.4-1.5-1.1-1.6c-4.4-0.6-18.5-1.6-15.7,11.8
				C43.3,74,43.7,74.5,44.2,74.8L44.2,74.8z M44.2,74.8"/>
			<path class="st1" d="M61.1,77.6c-6.2-1.3-12.4,0.6-17.6,4.8c-5.1-4.2-11.4-6.2-17.6-4.8C13.5,80.3,6,95.2,9.3,111
				c3.3,15.8,16.1,26.4,28.5,23.7c2-0.4,3.9-1.2,5.7-2.2c1.7,1,3.6,1.8,5.7,2.2c12.5,2.7,25.2-7.9,28.5-23.7
				C81,95.2,73.6,80.3,61.1,77.6L61.1,77.6z M61.1,77.6"/>
		</g>
	</g>
	<circle class="st7" cx="62.3" cy="91.4" r="6.9"/>
</g>
</svg>
