<?xml version="1.0" encoding="utf-8"?>
<!-- Generator: Adobe Illustrator 22.0.1, SVG Export Plug-In . SVG Version: 6.00 Build 0)  -->
<svg version="1.1" id="Camada_1" xmlns="http://www.w3.org/2000/svg" xmlns:xlink="http://www.w3.org/1999/xlink" x="0px" y="0px"
	 viewBox="0 0 150 150" style="enable-background:new 0 0 150 150;" xml:space="preserve">
<style type="text/css">
	.st0{fill:#7C3EBE;}
	.st1{fill:#9B4DEE;}
	.st2{fill:#9F8CBD;}
	.st3{fill:#D7B8F8;}
	.st4{fill:#CDCDCD;}
	.st5{fill:#EBDBFC;}
	.st6{fill:#AF71F1;}
	.st7{fill:#C394F5;}
	.st8{fill:#F4C734;}
	.st9{fill:#874E35;}
	.st10{fill:#AEBFCE;}
	.st11{fill:#FC757E;}
	.st12{fill:#F5585C;}
	.st13{fill:#E34450;}
	.st14{fill:#F9D6BF;}
	.st15{fill:none;stroke:#EBDBFC;stroke-width:4.4905;stroke-linecap:round;stroke-miterlimit:10;}
	.st16{fill:#99AF17;}
	.st17{fill:#FF4B34;}
	.st18{fill:#D79100;}
	.st19{fill:#BDBDBF;}
</style>
<g>
	<g>
		<path class="st1" d="M124.5,138.7H85l-6.6-87.8h52.7L124.5,138.7z M124.5,138.7"/>
		<path class="st5" d="M77.4,40h54.9c3,0,5.5,2.5,5.5,5.5v0c0,3-2.5,5.5-5.5,5.5H77.4c-3,0-5.5-2.5-5.5-5.5v0
			C71.9,42.4,74.3,40,77.4,40z"/>
	</g>
	<rect x="100.4" y="11.4" class="st1" width="8.8" height="28.5"/>
	<path class="st3" d="M12.6,121.2h87.8v8.8c0,4.8-3.9,8.8-8.8,8.8H21.4c-4.8,0-8.8-3.9-8.8-8.8V121.2z M12.6,121.2"/>
	<path class="st3" d="M43.3,72.9h26.3c17,0,30.7,13.8,30.7,30.7H12.6C12.6,86.6,26.4,72.9,43.3,72.9L43.3,72.9z M43.3,72.9"/>
	<path class="st6" d="M21.4,103.6h70.2c4.8,0,8.8,3.9,8.8,8.8c0,4.8-3.9,8.8-8.8,8.8H21.4c-4.8,0-8.8-3.9-8.8-8.8
		C12.6,107.5,16.5,103.6,21.4,103.6L21.4,103.6z M21.4,103.6"/>
	<path class="st5" d="M43.3,103.6l26.3,17.6l24.1-17.6H43.3z M43.3,103.6"/>
	<path class="st5" d="M63.1,88.2L63.1,88.2c1.2,0,2.2,1,2.2,2.2v0c0,1.2-1,2.2-2.2,2.2h0c-1.2,0-2.2-1-2.2-2.2v0
		C60.9,89.2,61.9,88.2,63.1,88.2z"/>
	<path class="st5" d="M49.9,88.2L49.9,88.2c1.2,0,2.2,1,2.2,2.2v0c0,1.2-1,2.2-2.2,2.2h0c-1.2,0-2.2-1-2.2-2.2v0
		C47.7,89.2,48.7,88.2,49.9,88.2z"/>
	<path class="st5" d="M36.8,88.2L36.8,88.2c1.2,0,2.2,1,2.2,2.2v0c0,1.2-1,2.2-2.2,2.2h0c-1.2,0-2.2-1-2.2-2.2v0
		C34.6,89.2,35.5,88.2,36.8,88.2z"/>
	<path class="st5" d="M69.7,79.5L69.7,79.5c1.2,0,2.2,1,2.2,2.2v0c0,1.2-1,2.2-2.2,2.2l0,0c-1.2,0-2.2-1-2.2-2.2v0
		C67.5,80.4,68.5,79.5,69.7,79.5z"/>
	<path class="st5" d="M56.5,79.5L56.5,79.5c1.2,0,2.2,1,2.2,2.2v0c0,1.2-1,2.2-2.2,2.2h0c-1.2,0-2.2-1-2.2-2.2v0
		C54.3,80.4,55.3,79.5,56.5,79.5z"/>
	<path class="st5" d="M43.3,79.5L43.3,79.5c1.2,0,2.2,1,2.2,2.2v0c0,1.2-1,2.2-2.2,2.2h0c-1.2,0-2.2-1-2.2-2.2v0
		C41.1,80.4,42.1,79.5,43.3,79.5z"/>
	<path class="st5" d="M76.3,88.2L76.3,88.2c1.2,0,2.2,1,2.2,2.2v0c0,1.2-1,2.2-2.2,2.2h0c-1.2,0-2.2-1-2.2-2.2v0
		C74.1,89.2,75.1,88.2,76.3,88.2z"/>
</g>
</svg>
