<?xml version="1.0" encoding="utf-8"?>
<!-- Generator: Adobe Illustrator 22.0.1, SVG Export Plug-In . SVG Version: 6.00 Build 0)  -->
<svg version="1.1" id="Camada_1" xmlns="http://www.w3.org/2000/svg" xmlns:xlink="http://www.w3.org/1999/xlink" x="0px" y="0px"
	 viewBox="0 0 150 150" style="enable-background:new 0 0 150 150;" xml:space="preserve">
<style type="text/css">
	.st0{fill:#7C3EBE;}
	.st1{fill:#9B4DEE;}
	.st2{fill:#9F8CBD;}
	.st3{fill:#D7B8F8;}
	.st4{fill:#CDCDCD;}
	.st5{fill:#EBDBFC;}
	.st6{fill:#AF71F1;}
	.st7{fill:#C394F5;}
	.st8{fill:#F4C734;}
	.st9{fill:#874E35;}
	.st10{fill:#AEBFCE;}
	.st11{fill:#FC757E;}
	.st12{fill:#F5585C;}
	.st13{fill:#E34450;}
	.st14{fill:#F9D6BF;}
	.st15{fill:none;stroke:#EBDBFC;stroke-width:4.4905;stroke-linecap:round;stroke-miterlimit:10;}
	.st16{fill:#99AF17;}
	.st17{fill:#FF4B34;}
	.st18{fill:#D79100;}
	.st19{fill:#BDBDBF;}
</style>
<g>
	<path class="st3" d="M118.1,73.9c-0.3-0.4-0.5-0.8-0.6-1.2c0,0-1.5-5.1-6.7-12.2C105.9,53.8,96.8,44,81,35.7
		c-15.8-8.3-29-10.3-37.4-10.5c-8.8-0.2-13.8,1.4-13.8,1.4c-0.4,0.1-0.9,0.2-1.3,0.2c0,0,0,0,0,0c-0.5,0-1,0.2-1.4,0.6
		c-0.4,0.4-0.6,0.9-0.6,1.4L26,136.5c0,0.7,0.4,1.4,1.1,1.8c0.3,0.2,0.6,0.2,0.9,0.2c0.4,0,0.8-0.1,1.1-0.4l88.5-61.5
		C118.5,76,118.7,74.8,118.1,73.9L118.1,73.9z M118.1,73.9"/>
	<path class="st7" d="M27.1,138.3c0.3,0.2,0.6,0.2,0.9,0.2c0.4,0,0.8-0.1,1.1-0.4l88.5-61.5c0.9-0.6,1.1-1.9,0.5-2.7
		c-0.3-0.4-0.5-0.8-0.6-1.2c0,0-0.7-2.3-2.8-6l-88.7,61.5l0,8.4C26,137.3,26.4,137.9,27.1,138.3L27.1,138.3z M27.1,138.3"/>
	<path class="st1" d="M60,55c-6.8,0-12.4,5.6-12.4,12.4c0,6.8,5.6,12.4,12.4,12.4c6.8,0,12.4-5.6,12.4-12.4C72.4,60.5,66.9,55,60,55
		L60,55z M60,55"/>
	<path class="st1" d="M60,71c-5.3,0-9.8-3.3-11.6-8c-0.5,1.4-0.8,2.8-0.8,4.3c0,6.8,5.6,12.4,12.4,12.4c6.8,0,12.4-5.6,12.4-12.4
		c0-1.5-0.3-3-0.8-4.3C69.9,67.7,65.3,71,60,71L60,71z M60,71"/>
	<path class="st1" d="M36.9,75.2c-2.3-2.3-5.3-3.6-8.5-3.7c-0.5,0-1,0.2-1.4,0.6c-0.4,0.4-0.6,0.9-0.6,1.4l-0.1,20.8
		c0,0.5,0.2,1,0.6,1.4c0.4,0.4,0.9,0.6,1.4,0.6h0c6.7-0.1,12.2-5.7,12.2-12.4C40.4,80.6,39.1,77.5,36.9,75.2L36.9,75.2z M36.9,75.2"
		/>
	<path class="st1" d="M28.2,87.4C28.2,87.4,28.2,87.4,28.2,87.4c-0.6,0-1-0.2-1.4-0.6c-0.3-0.3-0.5-0.6-0.6-1l0,8.4
		c0,0.5,0.2,1,0.6,1.4c0.4,0.4,0.9,0.6,1.4,0.6h0c6.7-0.1,12.2-5.7,12.2-12.4c0-1.5-0.3-3-0.8-4.4C37.8,84,33.4,87.3,28.2,87.4
		L28.2,87.4z M28.2,87.4"/>
	<path class="st1" d="M88.8,75c-6.8,0-12.4,5.6-12.4,12.4c0,5,3,9.5,7.6,11.4c0.2,0.1,0.5,0.2,0.8,0.2c0.4,0,0.8-0.1,1.1-0.4
		l14.4-10c0.6-0.4,0.9-1,0.8-1.7C101,80.2,95.5,75,88.8,75L88.8,75z M88.8,75"/>
	<path class="st1" d="M105.1,53.6c-3.9-4.1-8.3-7.9-13.3-11.3c-0.5-0.3-1.1-0.4-1.6-0.3c-5.5,1.4-9.3,6.3-9.3,12
		c0,6.8,5.6,12.4,12.4,12.4c6.4,0,11.7-4.8,12.3-11.2C105.6,54.6,105.5,54,105.1,53.6L105.1,53.6z M105.1,53.6"/>
	<path class="st1" d="M103.4,51.9c-2.2,3.2-6,5.3-10.2,5.3c-5.2,0-9.7-3.3-11.5-7.8c-0.6,1.4-0.9,3-0.9,4.5
		c0,6.8,5.6,12.4,12.4,12.4c6.4,0,11.7-4.8,12.3-11.2c0.1-0.6-0.1-1.1-0.5-1.5C104.5,53,104,52.5,103.4,51.9L103.4,51.9z
		 M103.4,51.9"/>
	<path class="st1" d="M63.1,29.4c-0.2-0.7-0.7-1.2-1.4-1.4c-6.2-1.7-12.3-2.7-18.2-2.8c-0.4,0-0.8,0-1.2,0c0,0,0,0,0,0
		c-0.7,0-1.3,0.3-1.7,0.9c-1.2,2-1.9,4.2-1.9,6.5c0,6.8,5.6,12.4,12.4,12.4c6.8,0,12.4-5.6,12.4-12.4C63.6,31.5,63.4,30.5,63.1,29.4
		L63.1,29.4z M63.1,29.4"/>
	<path class="st1" d="M62.6,28.5c-1.9,4.4-6.3,7.5-11.4,7.5c-5.2,0-9.7-3.3-11.5-7.9c-0.6,1.4-0.9,3-0.9,4.5
		c0,6.8,5.6,12.4,12.4,12.4c6.8,0,12.4-5.6,12.4-12.4c0-1.1-0.1-2.2-0.4-3.2C63,29,62.8,28.7,62.6,28.5L62.6,28.5z M62.6,28.5"/>
	<g>
		<path class="st1" d="M68.3,109c-1.9-4.6-6.4-7.6-11.4-7.6c-6.8,0-12.4,5.6-12.4,12.4c0,3.4,1.4,6.7,4,9.1c0.4,0.3,0.9,0.5,1.3,0.5
			c0.4,0,0.8-0.1,1.1-0.4l16.7-11.6C68.4,110.9,68.7,109.9,68.3,109L68.3,109z M68.3,109"/>
		<path class="st3" d="M129.3,69.2c-0.3-1.1-8-26.2-42.6-44.3c0,0,0,0,0,0C52.1,6.7,27,14.6,25.9,14.9c-4.2,1.4-6.6,6-5.2,10.2
			c0.7,2.1,2.1,3.7,4,4.7c1.9,1,4.1,1.1,6.2,0.5c0,0,4.6-1.4,12.5-1.2c7.9,0.2,20.5,2.1,35.6,10.1c15.1,7.9,23.9,17.2,28.5,23.6
			c4.6,6.4,6.1,10.9,6.1,11c0.6,2.1,2,3.8,3.9,4.8c1.2,0.7,2.5,1,3.9,1c0.8,0,1.5-0.1,2.3-0.3c2.1-0.6,3.8-2,4.8-3.9
			C129.7,73.5,129.9,71.3,129.3,69.2L129.3,69.2z M129.3,69.2"/>
	</g>
	<path class="st6" d="M124.6,73.2c0,0-1.7-5.5-7.3-13.1c-5.6-7.6-16-18.7-34-28.2c-18-9.5-33-11.7-42.5-12
		C31.5,19.8,26,21.4,26,21.4c-1.8,0.6-3.7,0.6-5.5,0.1c-0.2,1.2-0.1,2.4,0.3,3.6c0.7,2.1,2.1,3.7,4,4.7c1.9,1,4.1,1.1,6.2,0.5
		c0,0,4.6-1.4,12.5-1.2c7.9,0.2,20.5,2.1,35.6,10.1c15.1,7.9,23.9,17.2,28.5,23.6c4.6,6.4,6.1,10.9,6.1,11c0.6,2.1,2,3.8,3.9,4.8
		c1.2,0.7,2.5,1,3.9,1c0.8,0,1.5-0.1,2.3-0.3c1.2-0.4,2.4-1,3.3-1.9C125.9,76.2,125,74.8,124.6,73.2L124.6,73.2z M124.6,73.2"/>
	<path class="st0" d="M84.1,98.8c0.2,0.1,0.5,0.2,0.8,0.2c0.4,0,0.8-0.1,1.1-0.4l14.4-10c0.6-0.4,0.9-1,0.8-1.7
		c-0.1-3.3-1.5-6.2-3.7-8.4l-20,13.9C78.8,95.3,81.1,97.6,84.1,98.8L84.1,98.8z M84.1,98.8"/>
	<path class="st0" d="M48.5,122.8c0.4,0.3,0.9,0.5,1.3,0.5c0.4,0,0.8-0.1,1.1-0.4l16.7-11.6c0.8-0.5,1.1-1.5,0.7-2.4
		c-1.1-2.8-3.2-4.9-5.7-6.2l-18,12.5C44.9,118.1,46.3,120.8,48.5,122.8L48.5,122.8z M48.5,122.8"/>
</g>
</svg>
