<?xml version="1.0" encoding="utf-8"?>
<!-- Generator: Adobe Illustrator 22.0.1, SVG Export Plug-In . SVG Version: 6.00 Build 0)  -->
<svg version="1.1" id="Camada_1" xmlns="http://www.w3.org/2000/svg" xmlns:xlink="http://www.w3.org/1999/xlink" x="0px" y="0px"
	 viewBox="0 0 150 150" style="enable-background:new 0 0 150 150;" xml:space="preserve">
<style type="text/css">
	.st0{fill:#7C3EBE;}
	.st1{fill:#9B4DEE;}
	.st2{fill:#9F8CBD;}
	.st3{fill:#D7B8F8;}
	.st4{fill:#CDCDCD;}
	.st5{fill:#EBDBFC;}
	.st6{fill:#AF71F1;}
	.st7{fill:#C394F5;}
	.st8{fill:#F4C734;}
	.st9{fill:#874E35;}
	.st10{fill:#AEBFCE;}
	.st11{fill:#FC757E;}
	.st12{fill:#F5585C;}
	.st13{fill:#E34450;}
	.st14{fill:#F9D6BF;}
	.st15{fill:none;stroke:#EBDBFC;stroke-width:4.4905;stroke-linecap:round;stroke-miterlimit:10;}
	.st16{fill:#99AF17;}
	.st17{fill:#FF4B34;}
	.st18{fill:#D79100;}
	.st19{fill:#BDBDBF;}
</style>
<g>
	<g>
		<path class="st3" d="M37,90.2l15.4-5.6L26.6,13.8C26,12,23.9,11,22.1,11.7l-8.7,3.2c-1.8,0.7-2.8,2.7-2.1,4.5L37,90.2L37,90.2z"/>
	</g>
	<polygon class="st7" points="42.8,58.3 21.4,47.2 13.8,26.4 35.2,37.5 42.8,58.3 	"/>
	<path class="st3" d="M74.5,27.3c17.3,0,31.3,14,31.3,31.3c0,17.3-14,31.3-31.3,31.3c-17.3,0-31.3-14-31.3-31.3
		C43.2,41.3,57.2,27.3,74.5,27.3L74.5,27.3z"/>
	<path class="st3" d="M62,29.9c-11,4.8-18.7,15.9-18.7,28.7c0,17.3,14,31.3,31.3,31.3c16.8,0,30.5-13.2,31.3-29.8
		C71.8,67.1,55.1,44.3,62,29.9L62,29.9z"/>
	<path class="st1" d="M109.7,55.2c13.2,0,23.8,10.7,23.8,23.8c0,13.2-10.7,23.8-23.8,23.8c-13.2,0-23.8-10.7-23.8-23.8
		C85.9,65.9,96.6,55.2,109.7,55.2L109.7,55.2z"/>
	<path class="st1" d="M39.3,55.2c13.2,0,23.8,10.7,23.8,23.8c0,13.2-10.7,23.8-23.8,23.8c-13.2,0-23.8-10.7-23.8-23.8
		C15.5,65.9,26.2,55.2,39.3,55.2L39.3,55.2z"/>
	<path class="st1" d="M15.5,79.1c0,13.2,10.7,23.8,23.8,23.8c10.8,0,20-7.2,22.9-17.2c-27.6,8.2-39.3-15.3-30.8-29.1
		C22.2,59.8,15.5,68.7,15.5,79.1L15.5,79.1z"/>
	<path class="st1" d="M85.9,79.1c0,13.2,10.7,23.8,23.8,23.8c10.8,0,20-7.2,22.9-17.2c-27.6,8.2-39.3-15.3-30.8-29.1
		C92.6,59.8,85.9,68.7,85.9,79.1L85.9,79.1z"/>
	<path class="st6" d="M74.5,55.2c13.2,0,23.8,10.7,23.8,23.8c0,13.2-10.7,23.8-23.8,23.8c-13.2,0-23.8-10.7-23.8-23.8
		C50.7,65.9,61.4,55.2,74.5,55.2L74.5,55.2z"/>
	<g>
		<path class="st6" d="M50.7,79.1c0,13.2,10.7,23.8,23.8,23.8c10.8,0,20-7.2,22.9-17.2c-27.6,8.2-39.3-15.3-30.8-29.1
			C57.4,59.8,50.7,68.7,50.7,79.1L50.7,79.1z"/>
		<path class="st3" d="M116.8,126.1H32.3c-5.5,0-10.4-3.3-12.5-8.4l-8.3-20.5C9.9,93.3,12.8,89,17,89h115.1c4.2,0,7.1,4.3,5.5,8.2
			l-8.3,20.5C127.2,122.7,122.3,126.1,116.8,126.1L116.8,126.1z"/>
	</g>
	<path class="st6" d="M109.8,138.5H39.3c-3,0-5.5-2.5-5.5-5.5v-6.9h81.6v6.9C115.3,136,112.9,138.5,109.8,138.5L109.8,138.5z"/>
	<path class="st6" d="M71,92.1c0-1.7,1.4-3.1,3.1-3.1v-2.4H55.2V89c1.7,0,3.1,1.4,3.1,3.1v1.6c0,3.5,2.8,6.3,6.3,6.3l0,0
		c3.5,0,6.3-2.8,6.3-6.3L71,92.1L71,92.1L71,92.1z"/>
	<path class="st1" d="M125.4,92.1c0-1.7,1.4-3.1,3.1-3.1v-1.4h-18.8V89c1.7,0,3.1,1.4,3.1,3.1v6.3c0,3.5,2.8,6.3,6.3,6.3l0,0
		c3.5,0,6.3-2.8,6.3-6.3L125.4,92.1L125.4,92.1L125.4,92.1z"/>
	<path class="st5" d="M87,77.2c1,0,1.9,0.8,1.9,1.9c0,1-0.8,1.9-1.9,1.9c-1,0-1.9-0.8-1.9-1.9C85.2,78,86,77.2,87,77.2L87,77.2z"/>
	<path class="st5" d="M69.8,65.1c1,0,1.9,0.8,1.9,1.9s-0.8,1.9-1.9,1.9c-1,0-1.9-0.8-1.9-1.9S68.8,65.1,69.8,65.1L69.8,65.1z"/>
	<path class="st5" d="M24.9,75.4c1,0,1.9,0.8,1.9,1.9c0,1-0.8,1.9-1.9,1.9c-1,0-1.9-0.8-1.9-1.9C23.1,76.2,23.9,75.4,24.9,75.4
		L24.9,75.4z"/>
	<path class="st5" d="M38.9,66.9c1,0,1.9,0.8,1.9,1.9c0,1-0.8,1.9-1.9,1.9c-1,0-1.9-0.8-1.9-1.9C37,67.8,37.8,66.9,38.9,66.9
		L38.9,66.9z"/>
	<path class="st5" d="M118.3,66.9c1,0,1.9,0.8,1.9,1.9c0,1-0.8,1.9-1.9,1.9c-1,0-1.9-0.8-1.9-1.9C116.5,67.8,117.3,66.9,118.3,66.9
		L118.3,66.9z"/>
	<path class="st5" d="M94.4,48c1,0,1.9,0.8,1.9,1.9c0,1-0.8,1.9-1.9,1.9c-1,0-1.9-0.8-1.9-1.9C92.5,48.9,93.3,48,94.4,48L94.4,48z"
		/>
	<path class="st5" d="M77.4,35c1,0,1.9,0.8,1.9,1.9c0,1-0.8,1.9-1.9,1.9c-1,0-1.9-0.8-1.9-1.9C75.6,35.8,76.4,35,77.4,35L77.4,35z"
		/>
	<path class="st5" d="M55.2,46.9c1,0,1.9,0.8,1.9,1.9c0,1-0.8,1.9-1.9,1.9c-1,0-1.9-0.8-1.9-1.9C53.4,47.7,54.2,46.9,55.2,46.9
		L55.2,46.9z"/>
</g>
</svg>
